<svg width="221" height="220" viewBox="0 0 221 220" fill="none" xmlns="http://www.w3.org/2000/svg">
<path d="M0 0H220V220H0V0Z" fill="#FFFEFE"/>
<path d="M27.8378 199.24H22.8329V169.235H5.13275V164.23H45.538V169.235H27.8378V199.24ZM86.3095 199.24H63.7753C61.3502 199.24 59.1448 198.785 57.1591 197.873C55.1734 196.962 53.4726 195.716 52.0566 194.138C50.6568 192.559 49.5745 190.703 48.8095 188.571C48.0445 186.439 47.662 184.16 47.662 181.735C47.662 179.326 48.0445 177.064 48.8095 174.948C49.5745 172.816 50.6568 170.961 52.0566 169.382C53.4726 167.787 55.1734 166.534 57.1591 165.622C59.1448 164.694 61.3502 164.23 63.7753 164.23H86.3095V169.235H63.7753C62.0501 169.235 60.4957 169.569 59.1122 170.236C57.7451 170.887 56.5813 171.783 55.621 172.922C54.677 174.045 53.9446 175.363 53.4238 176.877C52.9192 178.391 52.6669 180.01 52.6669 181.735C52.6669 183.461 52.9192 185.088 53.4238 186.618C53.9446 188.132 54.677 189.458 55.621 190.598C56.5813 191.721 57.7451 192.608 59.1122 193.259C60.4957 193.91 62.0501 194.235 63.7753 194.235H81.3046V184.25H60.1132V179.245H86.3095V199.24ZM127.105 199.24H93.6581V164.23H98.663V194.235H127.105V199.24ZM136.187 199.24H131.231V171.75H136.187V199.24ZM168.658 199.24C168.658 197.417 168.349 195.651 167.73 193.942C167.128 192.217 166.306 190.598 165.265 189.084C164.239 187.554 163.043 186.13 161.676 184.812C160.325 183.493 158.901 182.321 157.403 181.296C155.906 180.254 154.376 179.383 152.813 178.684C151.267 177.967 149.794 177.438 148.394 177.097V199.24H143.39V171.75H146.1V171.799C147.89 171.896 149.794 172.295 151.812 172.995C153.847 173.679 155.865 174.615 157.867 175.803C159.885 176.975 161.822 178.374 163.678 180.002C165.549 181.613 167.21 183.396 168.658 185.349V171.75H173.639V199.24H168.658ZM209.552 199.24H180.841V171.652H209.552V176.682H185.894V194.187H209.552V199.24ZM206.353 187.839H188.263V182.785H206.353V187.839Z" fill="black"/>
<path d="M4.67991 60.3739L126.699 18.0854L129.906 142.077L5.73397 125.429L4.67991 60.3739Z" stroke="black" stroke-width="7"/>
<path d="M133.227 142.577L216.644 141.225L214.835 29.5644L129.07 16.3857" stroke="black" stroke-width="7"/>
<path d="M139.285 32.7397L140.746 125.087" stroke="black" stroke-width="4"/>
<path d="M199.089 39.5293L137.341 30.9302" stroke="black" stroke-width="4"/>
<line y1="-3.5" x2="119.072" y2="-3.5" transform="matrix(0.0244956 0.9997 -0.999707 0.0242034 110.962 21.1094)" stroke="black" stroke-width="7"/>
<line x1="88.1207" y1="32.4619" x2="89.7897" y2="135.468" stroke="black" stroke-width="7"/>
<line x1="74.4358" y1="36.9067" x2="76.0227" y2="134.847" stroke="black" stroke-width="7"/>
<line x1="54.0658" y1="45.7949" x2="55.4406" y2="130.649" stroke="black" stroke-width="7"/>
<line x1="40.3875" y1="50.662" x2="41.6598" y2="129.183" stroke="black" stroke-width="7"/>
<path d="M24.7107 55.3501L25.8769 127.328" stroke="black" stroke-width="7"/>
</svg>
