<svg preserveAspectRatio="xMidYMid meet" viewBox="0 0 221 172" fill="none" xmlns="http://www.w3.org/2000/svg">
<path d="M190.57 171.24H167.602V149.17H190.57V153.193H171.645V167.197H190.57V171.24ZM188.012 162.119H173.539V158.076H188.012V162.119Z" fill="black"/>
<path d="M157.856 171.24C157.856 169.782 157.608 168.369 157.113 167.002C156.632 165.622 155.974 164.326 155.141 163.115C154.32 161.891 153.363 160.752 152.27 159.697C151.189 158.643 150.05 157.705 148.852 156.885C147.654 156.051 146.43 155.355 145.18 154.795C143.943 154.222 142.765 153.799 141.645 153.525V171.24H137.641V149.248H139.809V149.287C141.241 149.365 142.765 149.684 144.379 150.244C146.007 150.791 147.621 151.54 149.223 152.49C150.837 153.428 152.387 154.548 153.871 155.85C155.369 157.139 156.697 158.564 157.856 160.127V149.248H161.84V171.24H157.856Z" fill="black"/>
<path d="M131.879 171.24H127.914V149.248H131.879V171.24Z" fill="black"/>
<path d="M124.613 171.24H97.8557V143.232H101.86V167.236H124.613V171.24Z" fill="black"/>
<path d="M91.9767 171.24H73.9494C72.0093 171.24 70.245 170.876 68.6564 170.146C67.0679 169.417 65.7072 168.421 64.5744 167.158C63.4546 165.895 62.5887 164.411 61.9767 162.705C61.3648 160.999 61.0588 159.176 61.0588 157.236C61.0588 155.309 61.3648 153.499 61.9767 151.807C62.5887 150.101 63.4546 148.617 64.5744 147.354C65.7072 146.077 67.0679 145.075 68.6564 144.346C70.245 143.604 72.0093 143.232 73.9494 143.232H91.9767V147.236H73.9494C72.5692 147.236 71.3257 147.503 70.2189 148.037C69.1252 148.558 68.1942 149.274 67.426 150.186C66.6708 151.084 66.0848 152.139 65.6682 153.35C65.2645 154.561 65.0627 155.856 65.0627 157.236C65.0627 158.617 65.2645 159.919 65.6682 161.143C66.0848 162.354 66.6708 163.415 67.426 164.326C68.1942 165.225 69.1252 165.934 70.2189 166.455C71.3257 166.976 72.5692 167.236 73.9494 167.236H87.9728V159.248H71.0197V155.244H91.9767V171.24Z" fill="black"/>
<path d="M45.1994 171.24H41.1955V147.236H27.0353V143.232H59.3596V147.236H45.1994V171.24Z" fill="black"/>
<path fill-rule="evenodd" clip-rule="evenodd" d="M133.511 135.092L2.28327 117.498L1.13934 46.8973L130.074 2.21195L133.511 135.092ZM126.301 127.063L123.324 11.9599L8.22054 51.8516L9.18474 111.361L126.301 127.063Z" fill="black"/>
<path fill-rule="evenodd" clip-rule="evenodd" d="M220.201 133.668L133.283 135.076L133.17 128.077L213.088 126.782L211.384 21.5751L128.539 8.84517L129.602 1.92638L218.287 15.5537L220.201 133.668Z" fill="black"/>
<path fill-rule="evenodd" clip-rule="evenodd" d="M138.746 114.119L137.285 21.7718L141.285 21.7086L142.746 114.055L138.746 114.119Z" fill="black"/>
<path fill-rule="evenodd" clip-rule="evenodd" d="M137.615 17.9497L199.363 26.5488L198.815 30.5103L137.067 21.9112L137.615 17.9497Z" fill="black"/>
<path fill-rule="evenodd" clip-rule="evenodd" d="M113.879 129.145L110.962 10.1094L117.96 9.93994L120.877 128.976L113.879 129.145Z" fill="black"/>
<path fill-rule="evenodd" clip-rule="evenodd" d="M86.2902 124.526L84.6212 21.5192L91.6203 21.4058L93.2893 124.412L86.2902 124.526Z" fill="black"/>
<path fill-rule="evenodd" clip-rule="evenodd" d="M72.5232 123.904L70.9363 25.9635L77.9354 25.8501L79.5223 123.791L72.5232 123.904Z" fill="black"/>
<path fill-rule="evenodd" clip-rule="evenodd" d="M51.9411 119.706L50.5662 34.8522L57.5653 34.7388L58.9402 119.592L51.9411 119.706Z" fill="black"/>
<path fill-rule="evenodd" clip-rule="evenodd" d="M38.1603 118.24L36.888 39.7189L43.8871 39.6055L45.1593 118.127L38.1603 118.24Z" fill="black"/>
<path fill-rule="evenodd" clip-rule="evenodd" d="M22.3774 116.385L21.2111 44.4069L28.2102 44.2935L29.3764 116.271L22.3774 116.385Z" fill="black"/>
</svg>
