<svg width="80" viewBox="0 0 218 168" fill="none" xmlns="http://www.w3.org/2000/svg">
<path d="M189.544 167.644H166.576V145.573H189.544V149.597H170.619V163.601H189.544V167.644ZM186.986 158.522H172.513V154.479H186.986V158.522Z" fill="black"/>
<path d="M156.83 167.644C156.83 166.185 156.582 164.772 156.087 163.405C155.606 162.025 154.948 160.729 154.115 159.519C153.294 158.295 152.337 157.155 151.244 156.101C150.163 155.046 149.024 154.108 147.826 153.288C146.628 152.455 145.404 151.758 144.154 151.198C142.917 150.625 141.739 150.202 140.619 149.929V167.644H136.615V145.651H138.783V145.69C140.215 145.769 141.739 146.088 143.353 146.647C144.981 147.194 146.595 147.943 148.197 148.894C149.811 149.831 151.361 150.951 152.845 152.253C154.343 153.542 155.671 154.968 156.83 156.53V145.651H160.814V167.644H156.83Z" fill="black"/>
<path d="M130.853 167.644H126.888V145.651H130.853V167.644Z" fill="black"/>
<path d="M123.587 167.644H96.8297V139.636H100.834V163.64H123.587V167.644Z" fill="black"/>
<path d="M90.9507 167.644H72.9234C70.9833 167.644 69.219 167.279 67.6304 166.55C66.0419 165.821 64.6812 164.825 63.5484 163.562C62.4286 162.299 61.5627 160.814 60.9507 159.108C60.3388 157.403 60.0328 155.58 60.0328 153.64C60.0328 151.713 60.3388 149.903 60.9507 148.21C61.5627 146.504 62.4286 145.02 63.5484 143.757C64.6812 142.481 66.0419 141.478 67.6304 140.749C69.219 140.007 70.9833 139.636 72.9234 139.636H90.9507V143.64H72.9234C71.5432 143.64 70.2997 143.907 69.1929 144.44C68.0992 144.961 67.1682 145.677 66.4 146.589C65.6448 147.487 65.0588 148.542 64.6422 149.753C64.2385 150.964 64.0367 152.259 64.0367 153.64C64.0367 155.02 64.2385 156.322 64.6422 157.546C65.0588 158.757 65.6448 159.818 66.4 160.729C67.1682 161.628 68.0992 162.338 69.1929 162.858C70.2997 163.379 71.5432 163.64 72.9234 163.64H86.9468V155.651H69.9937V151.647H90.9507V167.644Z" fill="#EFC840"/>
<path d="M44.1734 167.644H40.1695V143.64H26.0093V139.636H58.3336V143.64H44.1734V167.644Z" fill="#EFC840"/>
<path fill-rule="evenodd" clip-rule="evenodd" d="M203 26L136 17L136.533 13.0356L203.533 22.0356L203 26Z" fill="black"/>
<path fill-rule="evenodd" clip-rule="evenodd" d="M139 121L136 17.0001L139.998 16.8848L142.998 120.885L139 121Z" fill="black"/>
<path fill-rule="evenodd" clip-rule="evenodd" d="M130.941 129.772L2.73806 112.698L1.63883 44.8557L127.614 1.44419L130.941 129.772ZM126.82 125.188L123.757 7.00422L5.68531 47.6921L6.68172 109.188L126.82 125.188Z" fill="black"/>
<path fill-rule="evenodd" clip-rule="evenodd" d="M217.64 127.951L130.17 129.368L130.105 125.369L213.576 124.016L211.859 18.0381L125.675 5.39888L126.255 1.44122L215.803 14.5738L217.64 127.951Z" fill="black"/>
<path fill-rule="evenodd" clip-rule="evenodd" d="M112.853 125.549L109.974 8.40394L113.973 8.30566L116.852 125.451L112.853 125.549Z" fill="black"/>
<path fill-rule="evenodd" clip-rule="evenodd" d="M85.2643 120.929L83.5953 17.9227L87.5948 17.8579L89.2638 120.864L85.2643 120.929Z" fill="black"/>
<path fill-rule="evenodd" clip-rule="evenodd" d="M71.4973 120.308L69.9104 22.367L73.9099 22.3022L75.4967 120.243L71.4973 120.308Z" fill="black"/>
<path fill-rule="evenodd" clip-rule="evenodd" d="M50.9152 116.109L49.5404 31.2557L53.5398 31.1909L54.9147 116.045L50.9152 116.109Z" fill="black"/>
<path fill-rule="evenodd" clip-rule="evenodd" d="M37.1344 114.644L35.8621 36.1224L39.8616 36.0576L41.1338 114.579L37.1344 114.644Z" fill="black"/>
<path fill-rule="evenodd" clip-rule="evenodd" d="M22.8513 112.764L21.6851 40.786L25.6845 40.7212L26.8508 112.699L22.8513 112.764Z" fill="black"/>
</svg>
