<svg viewBox="0 0 220 163" fill="none" xmlns="http://www.w3.org/2000/svg">
<path d="M149.482 162.071H132.256V145.518H149.482V148.536H135.288V159.039H149.482V162.071ZM147.563 155.23H136.709V152.198H147.563V155.23Z" fill="black"/>
<path d="M124.946 162.071C124.946 160.977 124.761 159.917 124.39 158.892C124.028 157.857 123.535 156.885 122.91 155.977C122.295 155.059 121.577 154.205 120.757 153.414C119.946 152.623 119.092 151.919 118.193 151.304C117.295 150.679 116.377 150.157 115.439 149.737C114.512 149.307 113.628 148.99 112.788 148.785V162.071H109.785V145.577H111.411V145.606C112.485 145.665 113.628 145.904 114.839 146.324C116.06 146.734 117.27 147.295 118.472 148.008C119.683 148.711 120.845 149.551 121.958 150.528C123.081 151.495 124.077 152.564 124.946 153.736V145.577H127.935V162.071H124.946Z" fill="black"/>
<path d="M105.464 162.071H102.49V145.577H105.464V162.071Z" fill="black"/>
<path d="M100.015 162.071H79.9462V141.065H82.9492V159.068H100.015V162.071Z" fill="black"/>
<path d="M75.5371 162.071H62.0165C60.5615 162.071 59.2382 161.797 58.0468 161.25C56.8554 160.704 55.8349 159.957 54.9853 159.009C54.1455 158.062 53.496 156.949 53.0371 155.669C52.5781 154.39 52.3486 153.023 52.3486 151.568C52.3486 150.123 52.5781 148.765 53.0371 147.496C53.496 146.216 54.1455 145.103 54.9853 144.156C55.8349 143.199 56.8554 142.447 58.0468 141.9C59.2382 141.343 60.5615 141.065 62.0165 141.065H75.5371V144.068H62.0165C60.9814 144.068 60.0488 144.268 59.2187 144.668C58.3984 145.059 57.7001 145.596 57.124 146.28C56.5576 146.954 56.1181 147.745 55.8056 148.653C55.5029 149.561 55.3515 150.533 55.3515 151.568C55.3515 152.603 55.5029 153.58 55.8056 154.498C56.1181 155.406 56.5576 156.202 57.124 156.885C57.7001 157.559 58.3984 158.091 59.2187 158.482C60.0488 158.873 60.9814 159.068 62.0165 159.068H72.5341V153.077H59.8193V150.074H75.5371V162.071Z" fill="#040404"/>
<path d="M40.454 162.071H37.4511V144.068H26.831V141.065H51.0742V144.068H40.454V162.071Z" fill="#040404"/>
<path fill-rule="evenodd" clip-rule="evenodd" d="M132.919 134.927L2.27487 117.352L1.13627 46.8401L129.498 2.20197L132.919 134.927ZM125.71 126.894L122.747 11.9605L8.21708 51.7887L9.17671 111.217L125.71 126.894Z" fill="black"/>
<path fill-rule="evenodd" clip-rule="evenodd" d="M219.201 133.502L132.676 134.909L132.563 127.91L212.089 126.617L210.393 21.5544L127.949 8.84295L129.016 1.92468L217.297 15.536L219.201 133.502Z" fill="black"/>
<path fill-rule="evenodd" clip-rule="evenodd" d="M138.104 113.974L136.65 21.7481L140.649 21.6846L142.103 113.911L138.104 113.974Z" fill="black"/>
<path fill-rule="evenodd" clip-rule="evenodd" d="M136.99 17.9286L198.448 26.5165L197.897 30.4778L136.439 21.89L136.99 17.9286Z" fill="black"/>
<path fill-rule="evenodd" clip-rule="evenodd" d="M113.363 128.982L110.46 10.1012L117.458 9.93115L120.361 128.812L113.363 128.982Z" fill="black"/>
<path fill-rule="evenodd" clip-rule="evenodd" d="M85.9036 124.367L84.2424 21.4956L91.2415 21.3818L92.9026 124.254L85.9036 124.367Z" fill="black"/>
<path fill-rule="evenodd" clip-rule="evenodd" d="M72.2012 123.747L70.6217 25.9346L77.6208 25.8208L79.2003 123.633L72.2012 123.747Z" fill="black"/>
<path fill-rule="evenodd" clip-rule="evenodd" d="M51.7158 119.554L50.3474 34.8111L57.3465 34.6973L58.7149 119.44L51.7158 119.554Z" fill="black"/>
<path fill-rule="evenodd" clip-rule="evenodd" d="M37.9997 118.091L36.7334 39.6719L43.7325 39.5581L44.9988 117.977L37.9997 118.091Z" fill="black"/>
<path fill-rule="evenodd" clip-rule="evenodd" d="M22.2746 116.238L21.1138 44.354L28.1129 44.2402L29.2736 116.124L22.2746 116.238Z" fill="black"/>
</svg>
