<svg width="220" height="186" viewBox="0 0 220 186" fill="none" xmlns="http://www.w3.org/2000/svg">
<path d="M27.1934 180H22.1885V149.995H4.48828V144.99H44.8936V149.995H27.1934V180ZM85.665 180H63.1309C60.7057 180 58.5003 179.544 56.5146 178.633C54.529 177.721 52.8281 176.476 51.4121 174.897C50.0124 173.319 48.93 171.463 48.165 169.331C47.4001 167.199 47.0176 164.92 47.0176 162.495C47.0176 160.086 47.4001 157.824 48.165 155.708C48.93 153.576 50.0124 151.72 51.4121 150.142C52.8281 148.547 54.529 147.293 56.5146 146.382C58.5003 145.454 60.7057 144.99 63.1309 144.99H85.665V149.995H63.1309C61.4056 149.995 59.8512 150.329 58.4678 150.996C57.1006 151.647 55.9368 152.542 54.9766 153.682C54.0326 154.805 53.3001 156.123 52.7793 157.637C52.2747 159.15 52.0225 160.77 52.0225 162.495C52.0225 164.22 52.2747 165.848 52.7793 167.378C53.3001 168.892 54.0326 170.218 54.9766 171.357C55.9368 172.48 57.1006 173.368 58.4678 174.019C59.8512 174.67 61.4056 174.995 63.1309 174.995H80.6602V165.01H59.4688V160.005H85.665V180ZM126.461 180H93.0137V144.99H98.0186V174.995H126.461V180ZM135.543 180H130.587V152.51H135.543V180ZM168.014 180C168.014 178.177 167.704 176.411 167.086 174.702C166.484 172.977 165.662 171.357 164.62 169.844C163.595 168.314 162.398 166.89 161.031 165.571C159.68 164.253 158.256 163.081 156.759 162.056C155.261 161.014 153.731 160.143 152.169 159.443C150.623 158.727 149.15 158.198 147.75 157.856V180H142.745V152.51H145.455V152.559C147.245 152.656 149.15 153.055 151.168 153.755C153.202 154.438 155.221 155.374 157.223 156.562C159.241 157.734 161.178 159.134 163.033 160.762C164.905 162.373 166.565 164.155 168.014 166.108V152.51H172.994V180H168.014ZM208.907 180H180.196V152.412H208.907V157.441H185.25V174.946H208.907V180ZM205.709 168.599H187.618V163.545H205.709V168.599Z" fill="black"/>
<path d="M4.0355 48.1342L126.055 5.84565L129.262 129.837L5.08956 113.189L4.0355 48.1342Z" stroke="black" stroke-width="7"/>
<path d="M132.582 130.337L216 128.985L214.191 17.3246L128.426 4.146" stroke="black" stroke-width="7"/>
<path d="M138.641 20.5L140.101 112.847" stroke="black" stroke-width="4"/>
<path d="M198.444 27.2896L136.697 18.6904" stroke="black" stroke-width="4"/>
<line y1="-3.5" x2="119.072" y2="-3.5" transform="matrix(0.0244956 0.9997 -0.999707 0.0242034 110.318 8.86963)" stroke="black" stroke-width="7"/>
<line x1="87.4763" y1="20.2221" x2="89.1453" y2="123.229" stroke="black" stroke-width="7"/>
<line x1="73.7913" y1="24.6669" x2="75.3782" y2="122.608" stroke="black" stroke-width="7"/>
<line x1="53.4214" y1="33.5551" x2="54.7962" y2="118.409" stroke="black" stroke-width="7"/>
<line x1="39.7431" y1="38.4223" x2="41.0153" y2="116.944" stroke="black" stroke-width="7"/>
<path d="M24.0662 43.1104L25.2325 115.088" stroke="black" stroke-width="7"/>
</svg>
