<svg width="220" height="186" viewBox="0 0 220 186" fill="none" xmlns="http://www.w3.org/2000/svg">
<path d="M44.5547 170H40.5508V145.996H26.3906V141.992H58.7148V145.996H44.5547V170ZM91.332 170H73.3047C71.3646 170 69.6003 169.635 68.0117 168.906C66.4232 168.177 65.0625 167.181 63.9297 165.918C62.8099 164.655 61.944 163.171 61.332 161.465C60.7201 159.759 60.4141 157.936 60.4141 155.996C60.4141 154.069 60.7201 152.259 61.332 150.566C61.944 148.861 62.8099 147.376 63.9297 146.113C65.0625 144.837 66.4232 143.835 68.0117 143.105C69.6003 142.363 71.3646 141.992 73.3047 141.992H91.332V145.996H73.3047C71.9245 145.996 70.681 146.263 69.5742 146.797C68.4805 147.318 67.5495 148.034 66.7812 148.945C66.026 149.844 65.4401 150.898 65.0234 152.109C64.6198 153.32 64.418 154.616 64.418 155.996C64.418 157.376 64.6198 158.678 65.0234 159.902C65.4401 161.113 66.026 162.174 66.7812 163.086C67.5495 163.984 68.4805 164.694 69.5742 165.215C70.681 165.736 71.9245 165.996 73.3047 165.996H87.3281V158.008H70.375V154.004H91.332V170Z" fill="#EFC840"/>
<path d="M123.969 170H97.2109V141.992H101.215V165.996H123.969V170ZM131.234 170H127.27V148.008H131.234V170ZM157.211 170C157.211 168.542 156.964 167.129 156.469 165.762C155.987 164.382 155.329 163.086 154.496 161.875C153.676 160.651 152.719 159.512 151.625 158.457C150.544 157.402 149.405 156.465 148.207 155.645C147.009 154.811 145.785 154.115 144.535 153.555C143.298 152.982 142.12 152.559 141 152.285V170H136.996V148.008H139.164V148.047C140.596 148.125 142.12 148.444 143.734 149.004C145.362 149.551 146.977 150.299 148.578 151.25C150.193 152.188 151.742 153.307 153.227 154.609C154.724 155.898 156.052 157.324 157.211 158.887V148.008H161.195V170H157.211ZM189.926 170H166.957V147.93H189.926V151.953H171V165.957H189.926V170ZM187.367 160.879H172.895V156.836H187.367V160.879Z" fill="black"/>
<path d="M4.0355 48.1342L126.055 5.84565L129.262 129.837L5.08956 113.189L4.0355 48.1342Z" stroke="black" stroke-width="7"/>
<path d="M132.582 130.337L216 128.985L214.191 17.3246L128.426 4.146" stroke="black" stroke-width="7"/>
<path d="M138.641 20.5L140.101 112.847" stroke="black" stroke-width="4"/>
<path d="M198.444 27.2896L136.697 18.6904" stroke="black" stroke-width="4"/>
<line y1="-3.5" x2="119.072" y2="-3.5" transform="matrix(0.0244956 0.9997 -0.999707 0.0242034 110.318 8.86963)" stroke="black" stroke-width="7"/>
<line x1="87.4763" y1="20.2221" x2="89.1453" y2="123.229" stroke="black" stroke-width="7"/>
<line x1="73.7913" y1="24.6669" x2="75.3782" y2="122.608" stroke="black" stroke-width="7"/>
<line x1="53.4214" y1="33.5551" x2="54.7962" y2="118.409" stroke="black" stroke-width="7"/>
<line x1="39.7431" y1="38.4223" x2="41.0153" y2="116.944" stroke="black" stroke-width="7"/>
<path d="M24.0662 43.1104L25.2325 115.088" stroke="black" stroke-width="7"/>
</svg>
